<svg width="50" height="50" viewBox="0 0 50 50" fill="none" xmlns="http://www.w3.org/2000/svg">
<g clip-path="url(#clip0_1_498)">
<path d="M25 50C38.8071 50 50 38.8071 50 25C50 11.1929 38.8071 0 25 0C11.1929 0 0 11.1929 0 25C0 38.8071 11.1929 50 25 50Z" fill="#EAB14D"/>
<path d="M25 0C24.5537 0 24.1103 0.012207 23.6697 0.0352539C36.8584 0.726855 47.3396 11.6392 47.3396 25C47.3396 38.3608 36.8584 49.2731 23.6697 49.9647C24.1103 49.9878 24.5537 50 25 50C38.8071 50 50 38.8071 50 25C50 11.1929 38.8071 0 25 0Z" fill="#E49542"/>
<path d="M25 44.4811C35.7592 44.4811 44.4812 35.7591 44.4812 25C44.4812 14.2408 35.7592 5.5188 25 5.5188C14.2409 5.5188 5.51886 14.2408 5.51886 25C5.51886 35.7591 14.2409 44.4811 25 44.4811Z" fill="#F4FBFF"/>
<path d="M25 5.5188C24.4604 5.5188 23.9264 5.54175 23.3979 5.58472C33.4076 6.39956 41.2772 14.7803 41.2772 25C41.2772 35.2196 33.4076 43.6002 23.3979 44.4152C23.9264 44.4583 24.4604 44.4812 25 44.4812C35.7592 44.4812 44.4812 35.7591 44.4812 25C44.4812 14.241 35.7592 5.5188 25 5.5188Z" fill="#DAF1F4"/>
<path d="M25 11.5148C24.5833 11.5148 24.2455 11.1771 24.2455 10.7604V9.65293C24.2455 9.23623 24.5833 8.89844 25 8.89844C25.4167 8.89844 25.7546 9.23623 25.7546 9.65293V10.7604C25.7546 11.1771 25.4167 11.5148 25 11.5148Z" fill="#2B4D66"/>
<path d="M35.028 15.7027C34.8348 15.7027 34.6418 15.629 34.4944 15.4818C34.1998 15.187 34.1998 14.7094 34.4945 14.4147L35.2776 13.6317C35.5722 13.3369 36.05 13.337 36.3447 13.6317C36.6393 13.9264 36.6393 14.404 36.3446 14.6987L35.5615 15.4818C35.4141 15.629 35.2211 15.7027 35.028 15.7027Z" fill="#2B4D66"/>
<path d="M40.2651 25.7546H39.1577C38.7409 25.7546 38.4032 25.4168 38.4032 25.0001C38.4032 24.5834 38.741 24.2456 39.1577 24.2456H40.2651C40.6819 24.2456 41.0196 24.5834 41.0196 25.0001C41.0196 25.4168 40.6818 25.7546 40.2651 25.7546Z" fill="#2B4D66"/>
<path d="M35.7529 36.5658C35.5598 36.5658 35.3667 36.492 35.2193 36.3448L34.4363 35.5618C34.1417 35.267 34.1417 34.7894 34.4363 34.4946C34.731 34.2 35.2087 34.2 35.5035 34.4946L36.2865 35.2776C36.5811 35.5723 36.5811 36.05 36.2865 36.3448C36.1391 36.492 35.946 36.5658 35.7529 36.5658Z" fill="#2B4D66"/>
<path d="M24.9178 41.02C24.5011 41.02 24.1633 40.6822 24.1633 40.2655V39.1581C24.1633 38.7413 24.5011 38.4036 24.9178 38.4036C25.3345 38.4036 25.6723 38.7414 25.6723 39.1581V40.2655C25.6723 40.6822 25.3345 41.02 24.9178 41.02Z" fill="#2B4D66"/>
<path d="M14.1066 36.5077C13.9135 36.5077 13.7204 36.434 13.5731 36.2866C13.2784 35.992 13.2785 35.5142 13.5731 35.2195L14.3562 34.4365C14.651 34.142 15.1286 34.1419 15.4233 34.4366C15.7179 34.7312 15.7179 35.209 15.4232 35.5037L14.6401 36.2867C14.4928 36.4341 14.2997 36.5077 14.1066 36.5077Z" fill="#2B4D66"/>
<path d="M10.76 25.6726H9.65262C9.23593 25.6726 8.89813 25.3348 8.89813 24.9181C8.89813 24.5014 9.23593 24.1636 9.65262 24.1636H10.76C11.1767 24.1636 11.5145 24.5014 11.5145 24.9181C11.5146 25.3348 11.1767 25.6726 10.76 25.6726Z" fill="#2B4D66"/>
<path d="M14.9479 15.6447C14.7549 15.6447 14.5618 15.571 14.4144 15.4237L13.6313 14.6406C13.3367 14.3459 13.3366 13.8683 13.6312 13.5736C13.926 13.2789 14.4036 13.2788 14.6983 13.5735L15.4814 14.3566C15.7761 14.6512 15.7762 15.1289 15.4815 15.4237C15.3341 15.5709 15.141 15.6447 14.9479 15.6447Z" fill="#2B4D66"/>
<path d="M25 25.7545H18.5918C18.1751 25.7545 17.8373 25.4166 17.8373 24.9999C17.8373 24.5832 18.1751 24.2454 18.5918 24.2454H24.2454V14.6461C24.2454 14.2294 24.5832 13.8916 24.9999 13.8916C25.4166 13.8916 25.7544 14.2294 25.7544 14.6461V24.9999C25.7545 25.4166 25.4167 25.7545 25 25.7545Z" fill="#2B4D66"/>
<path d="M32.7408 29.7354C32.6246 29.7354 32.5068 29.7084 32.3964 29.6517L24.655 25.6708C24.2844 25.4803 24.1385 25.0254 24.329 24.6548C24.5195 24.2842 24.9744 24.1382 25.3451 24.3288L33.0865 28.3096C33.4571 28.5002 33.6031 28.9551 33.4125 29.3256C33.2786 29.5858 33.0145 29.7354 32.7408 29.7354Z" fill="#DA4A54"/>
<path d="M25 27.0138C26.1122 27.0138 27.0139 26.1122 27.0139 24.9999C27.0139 23.8877 26.1122 22.9861 25 22.9861C23.8878 22.9861 22.9861 23.8877 22.9861 24.9999C22.9861 26.1122 23.8878 27.0138 25 27.0138Z" fill="#365E7D"/>
</g>
<defs>
<clipPath id="clip0_1_498">
<rect width="50" height="50" fill="white"/>
</clipPath>
</defs>
</svg>
