<svg width="50" height="50" viewBox="0 0 50 50" fill="none" xmlns="http://www.w3.org/2000/svg">
<g clip-path="url(#clip0_1_428)">
<path d="M47.0244 33.8899L49.9555 15.1742C50.2603 13.275 48.968 11.488 47.0687 11.1823L7.51689 4.83408C5.61768 4.52929 3.83077 5.82157 3.52598 7.72079L2.12051 16.4734V33.781L47.0244 33.8899Z" fill="#146AA8"/>
<path d="M47.0687 11.1822L35.8352 9.37964C28.2904 20.9241 16.0936 28.9199 6.74011 33.7922L47.0243 33.8897L49.9554 15.1741C50.2602 13.2747 48.9679 11.4878 47.0687 11.1822Z" fill="#126099"/>
<path d="M3.48329 15.6025H43.541C45.4647 15.6025 47.0243 17.1622 47.0243 19.0858V41.7272C47.0243 43.6508 45.4647 45.2105 43.541 45.2105H3.48329C1.55966 45.2104 0 43.6508 0 41.7272V19.0858C0 17.1622 1.55966 15.6025 3.48329 15.6025Z" fill="#4398D1"/>
<path d="M43.541 15.6025H42.8444C34.6238 30.1967 19.2634 40.2076 9.88641 45.2104H43.541C45.4647 45.2104 47.0243 43.6507 47.0243 41.7271V19.0858C47.0243 17.1622 45.4647 15.6025 43.541 15.6025Z" fill="#3E8CC7"/>
<path d="M13.0623 19.9568H4.3541V26.9234H13.0623V19.9568Z" fill="#FDB62F"/>
<path d="M6.96659 22.5693H4.3541V24.3109H6.96659V22.5693Z" fill="#FD7B2F"/>
<path d="M13.0624 22.5693H10.4499V24.3109H13.0624V22.5693Z" fill="#FD7B2F"/>
<path d="M38.3161 40.8564C40.7208 40.8564 42.6702 38.907 42.6702 36.5023C42.6702 34.0976 40.7208 32.1482 38.3161 32.1482C35.9114 32.1482 33.962 34.0976 33.962 36.5023C33.962 38.907 35.9114 40.8564 38.3161 40.8564Z" fill="#FDB62F"/>
<path d="M33.0912 40.8564C35.4959 40.8564 37.4452 38.907 37.4452 36.5023C37.4452 34.0976 35.4959 32.1482 33.0912 32.1482C30.6865 32.1482 28.7371 34.0976 28.7371 36.5023C28.7371 38.907 30.6865 40.8564 33.0912 40.8564Z" fill="#DE4C3C"/>
<path d="M8.7082 33.019H3.48331V34.7606H8.7082V33.019Z" fill="#87CED9"/>
<path d="M17.4164 33.019H12.1915V34.7606H17.4164V33.019Z" fill="#87CED9"/>
<path d="M26.1245 33.019H20.8997V34.7606H26.1245V33.019Z" fill="#87CED9"/>
<path d="M26.1247 38.2441H3.48331V39.9857H26.1247V38.2441Z" fill="#87CED9"/>
<path d="M32.2204 19.9568H30.4788V23.4401H32.2204V19.9568Z" fill="#87CED9"/>
<path d="M35.7036 19.9568H33.962V23.4401H35.7036V19.9568Z" fill="#87CED9"/>
<path d="M39.1869 19.9568H37.4453V23.4401H39.1869V19.9568Z" fill="#87CED9"/>
<path d="M42.6701 19.9568H40.9285V23.4401H42.6701V19.9568Z" fill="#87CED9"/>
</g>
<defs>
<clipPath id="clip0_1_428">
<rect width="50" height="50" fill="white"/>
</clipPath>
</defs>
</svg>
