<svg width="84" height="92" viewBox="0 0 84 92" fill="none" xmlns="http://www.w3.org/2000/svg">
<g filter="url(#filter0_f_1_383)">
<rect x="20" y="44.8684" width="43.2066" height="26.5887" fill="#FBA457" fill-opacity="0.5"/>
</g>
<rect x="20" y="44.8684" width="43.2066" height="26.5887" fill="#FBA457"/>
<path d="M79.0094 74.9894H74.3385L74.769 74.4765C76.9743 71.8503 77.66 68.3344 76.6033 65.072L72.3835 52.043C71.3247 48.7743 68.7041 46.3199 65.3733 45.4773L63.2762 44.9469C62.4523 43.7902 61.1573 42.9911 59.6729 42.8345L59.6742 37.6453C59.6743 36.9734 59.1299 36.4288 58.4582 36.4286C57.7865 36.4286 57.2417 36.9729 57.2415 37.6446L57.2402 42.8058H54.8115L51.8029 42.0448C51.0414 41.852 50.4746 41.2256 50.359 40.4487L49.6679 35.8066C52.4559 33.6119 54.5213 30.6554 55.145 27.1229H56.1484C56.5309 27.1229 56.8991 27.0609 57.2443 26.948L57.243 31.9485C57.2428 32.6203 57.7873 33.1649 58.459 33.1651C59.1307 33.1651 59.6754 32.6208 59.6756 31.9491C59.6763 30.9791 59.6797 19.615 59.6797 15.8701C59.6873 7.10157 52.5935 0 43.8233 0H39.3832L39.3312 0.000162284C39.3216 0.000162284 39.3122 0.000973707 39.3024 0.000973707C30.5623 0.0443036 23.5193 7.13532 23.5268 15.8695C23.5268 19.9543 23.5243 15.7572 23.5337 42.8343C22.0493 42.9911 20.7543 43.79 19.9304 44.9468L17.8333 45.4771C14.5024 46.3197 11.8819 48.7741 10.8231 52.0428L6.60325 65.0718C5.54662 68.3344 6.23227 71.8501 8.43739 74.4762L8.8681 74.9892H4.19723C1.96403 74.9892 0.147095 76.8061 0.147095 79.0393C0.147095 81.2727 1.96387 83.0896 4.19723 83.0896H79.0095C81.2427 83.0896 83.0597 81.2727 83.0597 79.0395C83.0595 76.8063 81.2427 74.9894 79.0094 74.9894ZM70.0691 52.7923L74.289 65.8213C75.0858 68.2812 74.5688 70.9319 72.906 72.9121L71.1621 74.9894H68.9211C69.1686 74.3247 69.2994 73.6158 69.2994 72.8891C69.2994 71.4983 68.168 70.3669 66.7772 70.3669H64.2173V47.8872C64.2173 47.8221 64.2149 47.7575 64.2124 47.693C64.3734 47.7769 68.6121 48.2937 70.0691 52.7923ZM66.7773 72.7995C66.8267 72.7995 66.8668 72.8396 66.8668 72.8889C66.8668 73.6513 66.6243 74.3801 66.1826 74.9892H17.024C16.5823 74.38 16.3398 73.6512 16.3398 72.8889C16.3398 72.8394 16.3799 72.7995 16.4293 72.7995H66.7773ZM57.2451 23.6307C57.2242 24.2184 56.7409 24.6901 56.1484 24.6901H55.3361L55.3485 19.7598H56.1501C56.7465 19.7598 57.2324 20.2385 57.2459 20.8316L57.2451 23.6307ZM35.9986 5.83153C35.9986 3.97159 37.4842 2.45342 39.323 2.43427C39.3432 2.43427 39.3631 2.43281 39.3832 2.43281H43.8233C51.2464 2.43281 57.2535 8.44301 57.247 15.8688L57.2467 17.3271C55.5742 17.3271 52.3993 17.3271 47.4218 17.3271C41.1231 17.3271 35.9988 12.2027 35.9988 5.90391L35.9986 5.83153ZM36.3747 14.2556C38.9068 17.5967 42.9159 19.7598 47.4217 19.7598H52.9155L52.9025 24.9467C52.9025 29.0747 50.4853 32.2117 47.76 34.2151C47.7422 34.2251 44.4936 36.6972 41.6031 36.7777C38.9331 36.7032 35.5868 34.2949 35.449 34.2165C32.7226 32.2125 30.3038 29.0736 30.3038 24.941C30.2762 18.8545 30.3029 24.7472 30.2742 18.4112C30.2715 17.789 30.7741 17.2838 31.3966 17.2838C33.5593 17.2839 35.4389 16.053 36.3747 14.2556ZM48.7931 42.8058H34.4134C34.8472 42.2331 35.1432 41.5513 35.2541 40.8071L35.7744 37.3124C37.9809 38.571 40.1285 39.1797 41.5773 39.2107C41.5861 39.2108 41.5947 39.211 41.6035 39.211C41.6122 39.211 41.6208 39.2108 41.6296 39.2107C43.0785 39.1797 45.226 38.5711 47.4326 37.3124L47.9528 40.8071C48.0634 41.5513 48.3594 42.2331 48.7931 42.8058ZM27.0584 27.1229H28.0621C28.6853 30.6518 30.7471 33.6088 33.5389 35.8066L32.8477 40.4487C32.7322 41.2256 32.1653 41.852 31.404 42.0446L28.3951 42.8056H25.9664L25.9623 26.948C26.3077 27.0611 26.6757 27.1229 27.0584 27.1229ZM25.9615 23.6307L25.9609 20.8316C25.9743 20.2385 26.4602 19.7598 27.0566 19.7598H27.8477L27.8701 24.6901H27.0584C26.4657 24.6903 25.9824 24.2184 25.9615 23.6307ZM34.0324 3.54121C33.7327 4.24504 33.566 5.01913 33.566 5.83137C33.5824 5.99803 33.4513 8.30718 34.5736 11.0819V11.6743C34.5736 13.426 33.1484 14.8511 31.3967 14.8511C29.7973 14.8511 28.4635 15.899 28.01 17.3269H27.0566C26.6738 17.3269 26.3054 17.3889 25.9601 17.5022L25.9596 15.868C25.9547 10.2961 29.3203 5.58989 34.0324 3.54121ZM8.91776 65.8214L13.1376 52.7924C14.594 48.2958 18.8302 47.7785 18.9943 47.6931C18.9919 47.7577 18.9895 47.8221 18.9895 47.8874L18.9893 60.7827C18.9893 61.4545 19.5339 60.7827 20.2056 60.7827C20.8775 60.7827 21.4219 61.4545 21.4219 60.7827L21.4221 47.8874C21.4221 46.4268 22.6103 45.2386 24.0709 45.2386H59.136C60.5966 45.2386 61.7848 46.4268 61.7848 47.8874V70.3669H21.4219V60.7827C21.4219 60.1108 20.8773 59.5663 20.2056 59.5663C19.5338 59.5663 18.9893 60.1108 18.9893 60.7827V70.3669H16.4294C15.0386 70.3669 13.9072 71.4983 13.9072 72.8891C13.9072 73.6158 14.0382 74.3248 14.2855 74.9894H12.0447L10.3006 72.912C8.63798 70.9321 8.12094 68.2812 8.91776 65.8214ZM79.0094 80.6568H4.19723C3.30531 80.6568 2.5799 79.9313 2.5799 79.0395C2.5799 78.1476 3.30547 77.4222 4.19723 77.4222H79.0095C79.9014 77.4222 80.6269 78.1478 80.6269 79.0395C80.6269 79.9313 79.9013 80.6568 79.0094 80.6568Z" fill="#222222"/>
<ellipse cx="41.6033" cy="57.8304" rx="3.32359" ry="3.32358" fill="#F6FAFD"/>
<path d="M41.6033 63.5066C44.6745 63.5066 47.173 61.0079 47.173 57.9369C47.173 54.8658 44.6745 52.3669 41.6033 52.3669C38.5321 52.3669 36.0335 54.8656 36.0335 57.9367C36.0335 61.0078 38.5321 63.5066 41.6033 63.5066ZM41.6033 54.7997C43.3331 54.7997 44.7404 56.2069 44.7404 57.9369C44.7404 59.6668 43.3331 61.074 41.6033 61.074C39.8735 61.074 38.4662 59.6668 38.4662 57.9369C38.4662 56.2069 39.8735 54.7997 41.6033 54.7997Z" fill="#222222"/>
<defs>
<filter id="filter0_f_1_383" x="0" y="24.8684" width="83.2066" height="66.5886" filterUnits="userSpaceOnUse" color-interpolation-filters="sRGB">
<feFlood flood-opacity="0" result="BackgroundImageFix"/>
<feBlend mode="normal" in="SourceGraphic" in2="BackgroundImageFix" result="shape"/>
<feGaussianBlur stdDeviation="10" result="effect1_foregroundBlur_1_383"/>
</filter>
</defs>
</svg>
