<svg width="50" height="50" viewBox="0 0 50 50" fill="none" xmlns="http://www.w3.org/2000/svg">
<g clip-path="url(#clip0_1_451)">
<path d="M47.7272 34.5455H2.27275C1.02275 34.5455 0 33.5228 0 32.2728V7.27275C0 6.02275 1.02275 5 2.27275 5H47.7273C48.9773 5 50.0001 6.02275 50.0001 7.27275V32.2728C50 33.5228 48.9772 34.5455 47.7272 34.5455Z" fill="#0E9347"/>
<path d="M42.0454 25.4546C39.4317 25.4546 37.0454 26.7046 35.6817 28.75C34.5454 28.1819 33.2954 27.7273 31.8182 27.7273C27.8409 27.7273 24.5454 30.6819 23.9772 34.5455H47.7272C48.8636 34.5455 49.7727 33.7501 50 32.6137C49.5454 28.6364 46.1363 25.4546 42.0454 25.4546Z" fill="#0D8944"/>
<path d="M43.1818 32.2728H6.81817C6.81817 29.7728 4.77277 27.7274 2.27277 27.7274V11.8184C4.77277 11.8184 6.81817 9.77295 6.81817 7.27295H43.1818C43.1818 9.77295 45.2272 11.8184 47.7272 11.8184V27.7274C45.2272 27.7274 43.1818 29.7728 43.1818 32.2728Z" fill="#3BB54A"/>
<path d="M42.0454 25.4546C39.4317 25.4546 37.0454 26.7046 35.6817 28.75C34.5454 28.1819 33.2954 27.7273 31.8182 27.7273C28.6363 27.7273 25.9091 29.5455 24.6591 32.2728H43.1818C43.1818 29.7728 45.1137 27.8409 47.6137 27.7273C46.1363 26.3637 44.2046 25.4546 42.0454 25.4546Z" fill="#0E9347"/>
<path d="M25 29.9999C30.0208 29.9999 34.0909 25.421 34.0909 19.7727C34.0909 14.1243 30.0208 9.54541 25 9.54541C19.9792 9.54541 15.9091 14.1243 15.9091 19.7727C15.9091 25.421 19.9792 29.9999 25 29.9999Z" fill="#0E9347"/>
<path d="M11.3637 22.0453C12.6189 22.0453 13.6364 21.0277 13.6364 19.7725C13.6364 18.5173 12.6189 17.4998 11.3637 17.4998C10.1085 17.4998 9.09091 18.5173 9.09091 19.7725C9.09091 21.0277 10.1085 22.0453 11.3637 22.0453Z" fill="#0E9347"/>
<path d="M38.6363 22.0453C39.8915 22.0453 40.9091 21.0277 40.9091 19.7725C40.9091 18.5173 39.8915 17.4998 38.6363 17.4998C37.3811 17.4998 36.3636 18.5173 36.3636 19.7725C36.3636 21.0277 37.3811 22.0453 38.6363 22.0453Z" fill="#0E9347"/>
<path d="M26.1363 18.6365H23.8636C23.1817 18.6365 22.7272 18.1819 22.7272 17.5001C22.7272 16.8183 23.1818 16.3638 23.8636 16.3638H27.2727C27.9545 16.3638 28.409 15.9092 28.409 15.2275C28.409 14.5457 27.9544 14.0912 27.2727 14.0912H26.1363C26.1363 13.4093 25.6817 12.9548 25 12.9548C24.3182 12.9548 23.8637 13.4094 23.8637 14.0912C21.9318 14.0912 20.4546 15.5684 20.4546 17.5002C20.4546 19.4321 21.9318 20.9093 23.8637 20.9093H26.1364C26.8183 20.9093 27.2728 21.3639 27.2728 22.0457C27.2728 22.7275 26.8182 23.182 26.1364 23.182H22.7273C22.0455 23.182 21.591 23.6366 21.591 24.3183C21.591 25.0001 22.0456 25.4546 22.7273 25.4546H23.8637C23.8637 26.1365 24.3183 26.591 25 26.591C25.6818 26.591 26.1363 26.1364 26.1363 25.4546C28.0682 25.4546 29.5454 23.9774 29.5454 22.0456C29.5454 20.1137 28.0682 18.6365 26.1363 18.6365Z" fill="#89C763"/>
<path d="M29.5454 43.6365C33.9386 43.6365 37.5 40.0751 37.5 35.6819C37.5 31.2887 33.9386 27.7273 29.5454 27.7273C25.1522 27.7273 21.5908 31.2887 21.5908 35.6819C21.5908 40.0751 25.1522 43.6365 29.5454 43.6365Z" fill="#FFCA5D"/>
<path d="M39.7728 41.3638C44.166 41.3638 47.7274 37.8024 47.7274 33.4092C47.7274 29.016 44.166 25.4546 39.7728 25.4546C35.3796 25.4546 31.8182 29.016 31.8182 33.4092C31.8182 37.8024 35.3796 41.3638 39.7728 41.3638Z" fill="#F6B545"/>
<path d="M39.7728 25.4546C35.3409 25.4546 31.8182 28.9773 31.8182 33.4092C31.8182 37.841 35.3409 41.3638 39.7728 41.3638C44.2046 41.3638 47.7274 37.841 47.7274 33.4092C47.7274 28.9773 44.2046 25.4546 39.7728 25.4546ZM39.7728 39.091C36.5909 39.091 34.0909 36.591 34.0909 33.4092C34.0909 30.2273 36.5909 27.7273 39.7728 27.7273C42.9546 27.7273 45.4546 30.2273 45.4546 33.4092C45.4546 36.591 42.9546 39.091 39.7728 39.091Z" fill="#FFCB5B"/>
<path d="M39.7728 41.2498C44.2046 41.3635 47.7274 37.7271 47.7274 33.4089H47.6137C47.0455 33.4089 46.5909 33.8635 46.4774 34.4317C46.2501 36.0226 45.4546 37.4998 44.3183 38.5226C43.4092 39.4317 42.1592 39.9998 40.7955 40.2271C40.2273 40.2271 39.7728 40.6817 39.7728 41.2498Z" fill="#F6B545"/>
<path d="M39.7728 25.5683C35.3409 25.4546 31.8182 29.091 31.8182 33.4092H31.9318C32.5 33.4092 32.9546 32.9546 33.0682 32.3864C33.2954 30.7955 34.0909 29.3183 35.2273 28.2955C36.1363 27.3864 37.3863 26.8183 38.75 26.5909C39.3182 26.591 39.7728 26.1364 39.7728 25.5683Z" fill="#FFE27A"/>
<path d="M34.8863 34.2045C34.8863 31.0227 37.3863 28.5227 40.5682 28.5227C41.9318 28.5227 43.1818 28.9773 44.2045 29.8864C43.0682 28.5227 41.5909 27.7273 39.7727 27.7273C36.5909 27.7273 34.0909 30.2273 34.0909 33.4091C34.0909 35.2273 34.8863 36.7045 36.1363 37.7273C35.3409 36.8182 34.8863 35.5682 34.8863 34.2045Z" fill="#F19920"/>
<path d="M43.1818 36.932C43.0682 36.932 42.9546 36.932 42.8409 36.8183C42.6137 36.5911 42.6137 36.2501 42.8409 36.0229C43.5227 35.3411 43.8637 34.3183 43.8637 33.4092C43.8637 33.0683 44.0909 32.8411 44.4318 32.8411C44.7727 32.8411 45 33.0683 45 33.4092C45 34.6592 44.5454 35.9092 43.75 36.8183C43.5227 36.932 43.2954 36.932 43.1818 36.932Z" fill="#FFCB5B"/>
<path d="M39.7727 36.8183C39.0909 36.8183 38.6364 36.3637 38.6364 35.682V31.1366C38.6364 30.4547 39.091 30.0002 39.7727 30.0002C40.4545 30.0002 40.9091 30.4548 40.9091 31.1366V35.682C40.9091 36.3637 40.4546 36.8183 39.7727 36.8183Z" fill="#F19920"/>
<path d="M43.9772 40.1136C43.1818 37.2727 41.1363 35 38.5226 33.9773C38.0681 31.3636 36.3636 29.091 34.2045 27.7273C32.8408 29.2045 31.9317 31.1364 31.9317 33.2955C31.9317 37.7273 35.4545 41.25 39.8863 41.25C41.3637 41.3636 42.7272 40.9091 43.9772 40.1136Z" fill="#F19920"/>
<path d="M36.1363 37.7272C35.3409 36.7045 34.7727 35.4545 34.7727 34.0909C34.7727 32.5 35.4545 31.0228 36.5908 30C36.3636 29.6591 36.1362 29.4318 35.909 29.2046C34.7727 30.2273 34.0908 31.7046 34.0908 33.4092C34.0909 35.2272 34.8863 36.7045 36.1363 37.7272Z" fill="#E78825"/>
<path d="M38.6363 34.0908V35.6817C38.6363 36.3636 39.0909 36.8181 39.7727 36.8181C40.4544 36.8181 40.909 36.3635 40.909 35.6817V35.4545C40.2272 34.8862 39.4318 34.4317 38.6363 34.0908Z" fill="#E78825"/>
<path d="M43.9773 40.1134C43.75 39.318 43.5227 38.6362 43.0682 37.9543C42.1591 38.6362 41.0228 39.0907 39.7728 39.0907C36.5909 39.0907 34.0909 36.5907 34.0909 33.4088C34.0909 31.7042 34.7728 30.227 35.9091 29.2042C35.3409 28.6361 34.7728 28.1815 34.0909 27.8406C32.7273 29.3178 31.8182 31.2497 31.8182 33.4087C31.8182 37.8406 35.3409 41.3633 39.7728 41.3633C41.3637 41.3634 42.7273 40.9089 43.9773 40.1134Z" fill="#F6B545"/>
<path d="M43.6363 39.0911C42.8409 39.6592 41.8182 40.0001 40.7954 40.2274C40.2272 40.3411 39.7726 40.7956 39.7726 41.3637C41.3636 41.3637 42.7272 40.9091 43.9772 40.1137C43.8637 39.7728 43.75 39.432 43.6363 39.0911Z" fill="#F19920"/>
<path d="M34.0909 27.8408C32.7273 29.3181 31.8182 31.2499 31.8182 33.409H31.9318C32.5 33.409 32.9546 32.9544 33.0682 32.3862C33.2954 30.7953 34.0909 29.4316 35.1136 28.409C34.7728 28.2953 34.4318 28.0681 34.0909 27.8408Z" fill="#FFCB5B"/>
<path d="M29.5454 43.6365C33.9386 43.6365 37.5 40.0751 37.5 35.6819C37.5 31.2887 33.9386 27.7273 29.5454 27.7273C25.1522 27.7273 21.5908 31.2887 21.5908 35.6819C21.5908 40.0751 25.1522 43.6365 29.5454 43.6365Z" fill="#F6B545"/>
<path d="M28.4091 41.3638C28.4091 42.1592 28.5228 42.841 28.75 43.6365C28.9773 43.6365 29.3182 43.6365 29.5454 43.6365C33.9773 43.6365 37.5 40.1138 37.5 35.6819C37.5 34.8865 37.3863 34.2047 37.1591 33.4092C36.9318 33.4092 36.5909 33.4092 36.3637 33.4092C31.9318 33.4093 28.4091 36.932 28.4091 41.3638Z" fill="#F19920"/>
<path d="M29.5454 27.7273C25.1136 27.7273 21.5908 31.25 21.5908 35.6819C21.5908 40.1137 25.1136 43.6365 29.5454 43.6365C33.9772 43.6365 37.5 40.1136 37.5 35.6819C37.5 31.2501 33.9772 27.7273 29.5454 27.7273ZM29.5454 41.3636C26.3636 41.3636 23.8636 38.8636 23.8636 35.6818C23.8636 32.5 26.3636 30 29.5454 30C32.7272 30 35.2272 32.5 35.2272 35.6818C35.2272 38.8636 32.7272 41.3636 29.5454 41.3636Z" fill="#FFCB5B"/>
<path d="M29.5454 43.5227C33.9772 43.6364 37.5 40 37.5 35.6819H37.3863C36.8182 35.6819 36.3636 36.1365 36.25 36.7046C36.0228 38.2956 35.2272 39.7728 34.0909 40.7956C33.1818 41.7046 31.9318 42.2728 30.5682 42.5001C30 42.5 29.5454 42.9545 29.5454 43.5227Z" fill="#F6B545"/>
<path d="M29.5454 27.841C25.1136 27.7273 21.5908 31.3637 21.5908 35.6819H21.7045C22.2727 35.6819 22.7272 35.2273 22.8408 34.6591C23.0681 33.0682 23.8636 31.591 24.9999 30.5682C25.909 29.6591 27.159 29.091 28.5227 28.8636C29.0909 28.8636 29.5454 28.4091 29.5454 27.841Z" fill="#FFE27A"/>
<path d="M24.6591 36.4772C24.6591 33.2954 27.1591 30.7954 30.3409 30.7954C31.7046 30.7954 32.9546 31.25 33.9773 32.1591C32.8409 30.7954 31.3636 30 29.5454 30C26.3636 30 23.8636 32.5 23.8636 35.6818C23.8636 37.5 24.659 38.9772 25.909 40C25.1137 39.0909 24.6591 37.8409 24.6591 36.4772Z" fill="#F19920"/>
<path d="M32.9546 39.2044C32.8409 39.2044 32.7273 39.2044 32.6137 39.0908C32.3864 38.8635 32.3864 38.5226 32.6137 38.2954C33.2955 37.6135 33.6364 36.5908 33.6364 35.6817C33.6364 35.3408 33.8637 35.1135 34.2046 35.1135C34.5455 35.1135 34.7728 35.3408 34.7728 35.6817C34.7728 36.9317 34.3182 38.1817 33.5228 39.0908C33.2954 39.2044 33.0682 39.2044 32.9546 39.2044Z" fill="#FFCB5B"/>
<path d="M29.5454 39.091C28.8636 39.091 28.4091 38.6364 28.4091 37.9547V33.4093C28.4091 32.7274 28.8637 32.2729 29.5454 32.2729C30.2273 32.2729 30.6817 32.7275 30.6817 33.4093V37.9547C30.6818 38.6364 30.2273 39.091 29.5454 39.091Z" fill="#F19920"/>
<path d="M34.7728 33.5229C35 34.2047 35.2273 34.8865 35.2273 35.6819C35.2273 38.8638 32.7273 41.3638 29.5455 41.3638C29.2046 41.3638 28.7501 41.3638 28.4092 41.2501V41.3638C28.4092 42.1592 28.5229 42.841 28.7501 43.6365C28.9773 43.6365 29.3183 43.6365 29.5455 43.6365C33.9773 43.6365 37.5001 40.1138 37.5001 35.6819C37.5001 34.8865 37.3864 34.2047 37.1592 33.4092C36.9319 33.4092 36.591 33.4092 36.3638 33.4092C35.7954 33.4093 35.3409 33.4093 34.7728 33.5229Z" fill="#F6B545"/>
<path d="M35.2272 50.4548C39.6204 50.4548 43.1818 46.8934 43.1818 42.5002C43.1818 38.107 39.6204 34.5457 35.2272 34.5457C30.834 34.5457 27.2726 38.107 27.2726 42.5002C27.2726 46.8934 30.834 50.4548 35.2272 50.4548Z" fill="#F6B545"/>
<path d="M35.2272 34.5457C30.7954 34.5457 27.2726 38.0684 27.2726 42.5002C27.2726 46.9321 30.7954 50.4548 35.2272 50.4548C39.6591 50.4548 43.1818 46.9321 43.1818 42.5002C43.1818 38.0684 39.6591 34.5457 35.2272 34.5457ZM35.2272 48.1821C32.0454 48.1821 29.5454 45.6821 29.5454 42.5002C29.5454 39.3184 32.0454 36.8184 35.2272 36.8184C38.4091 36.8184 40.9091 39.3184 40.9091 42.5002C40.9091 45.6821 38.4091 48.1821 35.2272 48.1821Z" fill="#FFCB5B"/>
<path d="M35.2272 50.3409C39.6591 50.4546 43.1818 46.8182 43.1818 42.5H43.0682C42.5 42.5 42.0454 42.9546 41.9318 43.5228C41.7046 45.1137 40.9091 46.5909 39.7727 47.6137C38.8637 48.5227 37.6137 49.0909 36.25 49.3183C35.6818 49.3182 35.2272 49.7726 35.2272 50.3409Z" fill="#F6B545"/>
<path d="M35.2272 34.6591C30.7954 34.5454 27.2726 38.1818 27.2726 42.5H27.3863C27.9545 42.5 28.4091 42.0454 28.5226 41.4772C28.7499 39.8863 29.5454 38.4091 30.6817 37.3863C31.5908 36.4773 32.8408 35.9091 34.2045 35.6817C34.7727 35.6818 35.2272 35.2273 35.2272 34.6591Z" fill="#FFE27A"/>
<path d="M30.3409 43.2954C30.3409 40.1135 32.8409 37.6135 36.0228 37.6135C37.3864 37.6135 38.6364 38.0681 39.6591 38.9772C38.5228 37.6135 37.0454 36.8181 35.2272 36.8181C32.0454 36.8181 29.5454 39.3181 29.5454 42.5C29.5454 44.3181 30.3408 45.7954 31.5908 46.8181C30.7954 45.909 30.3409 44.659 30.3409 43.2954Z" fill="#F19920"/>
<path d="M38.6363 46.0226C38.5227 46.0226 38.4091 46.0226 38.2954 45.9089C38.0682 45.6816 38.0682 45.3407 38.2954 45.1135C38.9772 44.4316 39.3182 43.4089 39.3182 42.4998C39.3182 42.1589 39.5454 41.9316 39.8863 41.9316C40.2272 41.9316 40.4545 42.1589 40.4545 42.4998C40.4545 43.7498 39.9999 44.9998 39.2045 45.9089C38.9772 46.0226 38.75 46.0226 38.6363 46.0226Z" fill="#FFCB5B"/>
<path d="M35.2272 45.9092C34.5454 45.9092 34.0909 45.4546 34.0909 44.7729V40.2274C34.0909 39.5456 34.5455 39.0911 35.2272 39.0911C35.9091 39.0911 36.3636 39.5457 36.3636 40.2274V44.7728C36.3637 45.4546 35.9091 45.9092 35.2272 45.9092Z" fill="#F19920"/>
</g>
<defs>
<clipPath id="clip0_1_451">
<rect width="50" height="50" fill="white"/>
</clipPath>
</defs>
</svg>
